<?xml version="1.0" standalone="no"?>
<!DOCTYPE svg PUBLIC "-//W3C//DTD SVG 20010904//EN"
 "http://www.w3.org/TR/2001/REC-SVG-20010904/DTD/svg10.dtd">
<svg version="1.0" xmlns="http://www.w3.org/2000/svg"
 width="464.000000pt" height="512.000000pt" viewBox="0 0 464.000000 512.000000"
 preserveAspectRatio="xMidYMid meet">

<g transform="translate(0.000000,512.000000) scale(0.100000,-0.100000)"
fill="#E1E1E6" stroke="none">
<path d="M1797 4555 c-21 -8 -60 -14 -85 -13 -26 0 -54 -2 -62 -5 -40 -14 -50
-15 -55 -7 -9 15 -59 12 -91 -5 -16 -8 -47 -15 -69 -15 -22 0 -57 -9 -78 -20
-20 -11 -43 -20 -51 -20 -7 0 -26 -10 -41 -21 -36 -29 -158 -33 -194 -7 -39
29 -58 23 -66 -19 -10 -56 -30 -81 -74 -93 -41 -11 -67 -39 -103 -109 -21 -40
-22 -64 -7 -92 8 -17 2 -28 -43 -75 -37 -38 -65 -58 -88 -63 -27 -5 -40 -16
-57 -46 -12 -22 -33 -52 -47 -68 -15 -15 -26 -34 -26 -42 0 -8 -13 -29 -30
-47 -16 -17 -30 -39 -30 -49 0 -29 -22 -68 -42 -74 -24 -8 -26 -89 -3 -103 27
-15 36 -107 18 -199 -15 -80 -17 -83 -49 -93 -37 -13 -44 -27 -16 -37 28 -11
47 -45 48 -87 0 -28 6 -43 19 -50 32 -18 93 -88 128 -145 51 -85 85 -119 180
-183 122 -82 164 -100 191 -83 28 18 144 55 171 55 13 0 28 -7 35 -15 18 -22
93 -19 137 5 21 11 46 20 55 20 10 0 18 5 18 10 0 6 15 10 34 10 19 0 37 4 40
9 7 10 82 3 109 -11 9 -5 17 -17 17 -26 0 -44 23 -55 116 -59 81 -2 91 -5 112
-28 23 -27 29 -69 12 -80 -5 -3 -10 -25 -10 -47 0 -23 -5 -68 -12 -99 -15 -72
-6 -94 53 -134 24 -17 46 -34 48 -38 2 -5 17 -24 33 -43 22 -25 29 -40 24 -57
-4 -17 5 -40 29 -77 39 -61 42 -72 20 -90 -16 -13 -20 -36 -7 -42 17 -7 51
-79 45 -96 -3 -9 -21 -36 -40 -59 -25 -31 -33 -51 -33 -81 0 -22 -9 -59 -20
-83 -24 -53 -27 -147 -6 -155 22 -8 63 -76 76 -125 7 -24 21 -54 32 -66 16
-17 21 -35 20 -70 0 -26 6 -63 14 -82 8 -18 14 -54 14 -80 0 -46 28 -121 56
-152 8 -9 39 -65 69 -125 48 -96 52 -110 40 -128 -16 -24 -8 -43 41 -98 43
-49 46 -50 111 -31 32 10 94 18 138 20 44 1 106 8 138 15 55 12 64 18 153 110
70 72 94 104 94 123 0 26 24 56 68 85 14 10 27 35 37 73 18 71 19 94 3 100
-24 8 13 37 67 53 30 8 59 22 66 30 16 20 3 183 -17 205 -22 24 -17 45 18 74
18 15 56 49 84 75 33 30 65 50 87 54 26 5 45 19 69 48 l33 42 -2 144 c-1 124
-4 145 -19 156 -22 17 -47 111 -35 134 11 21 3 42 -22 62 -21 17 -22 13 23
100 46 92 52 100 63 101 7 0 26 16 42 36 72 84 152 166 175 178 74 39 220 212
220 259 0 14 4 28 10 31 19 12 80 113 80 132 0 12 7 24 16 27 8 3 12 11 8 17
-4 7 -7 25 -6 41 1 37 -18 44 -59 24 -18 -9 -55 -16 -83 -16 -28 -1 -62 -7
-76 -15 -14 -8 -38 -14 -53 -15 -16 0 -36 -4 -45 -9 -21 -11 -62 4 -62 23 0 7
-7 16 -15 20 -8 3 -15 16 -15 29 0 13 -9 34 -20 47 -11 13 -20 27 -20 32 0 4
-7 8 -15 8 -8 0 -24 13 -37 30 -12 16 -31 33 -42 36 -39 12 -85 70 -92 114 -5
29 -18 54 -44 82 -39 40 -59 104 -44 141 4 10 0 19 -9 23 -8 3 -17 18 -21 35
-3 16 -11 29 -17 29 -23 0 -57 47 -52 73 5 26 -13 67 -58 134 -16 23 -29 49
-29 58 0 16 -30 66 -57 93 -15 15 -28 60 -20 68 2 3 21 -24 41 -60 60 -107 75
-87 59 77 l-6 67 -51 0 c-29 0 -59 7 -70 15 -11 8 -30 15 -42 15 -25 0 -90
-26 -98 -39 -6 -8 -98 17 -146 39 -8 4 -25 3 -38 -1 -16 -6 -31 -2 -58 16 -20
14 -45 25 -54 25 -10 0 -23 7 -30 15 -21 25 -113 20 -146 -9 -26 -22 -27 -25
-14 -55 11 -28 10 -34 -5 -51 -23 -26 -34 -25 -86 5 -24 14 -59 25 -77 25 -31
0 -82 36 -82 57 0 5 -23 19 -51 32 -43 19 -55 21 -74 11 -19 -10 -29 -7 -79
26 -60 41 -69 63 -36 91 25 21 26 52 3 69 -17 12 -17 14 6 37 24 27 20 53 -6
42 -10 -3 -22 3 -30 15 -16 23 -16 23 -66 5z"/>
<path d="M3902 1808 c-7 -7 -12 -18 -12 -26 0 -8 -11 -23 -25 -34 -14 -11 -25
-28 -25 -38 0 -29 -55 -76 -103 -88 -73 -19 -82 -37 -82 -161 0 -104 -7 -134
-38 -159 -11 -10 -12 -21 -5 -55 9 -38 13 -69 17 -119 1 -20 58 -78 76 -78 8
0 17 5 20 10 3 6 13 10 21 10 23 0 74 42 74 61 0 10 4 20 9 24 6 3 13 27 16
53 4 26 15 75 26 109 10 34 19 77 19 95 0 18 7 46 15 61 13 25 25 71 31 122 1
11 3 22 3 24 1 2 7 -2 15 -9 12 -9 16 -5 22 24 3 20 3 44 -2 53 -4 10 -9 28
-10 41 -2 19 -40 92 -48 92 -1 0 -7 -5 -14 -12z"/>
</g>
</svg>
