<?xml version="1.0" standalone="no"?>
<!DOCTYPE svg PUBLIC "-//W3C//DTD SVG 20010904//EN"
 "http://www.w3.org/TR/2001/REC-SVG-20010904/DTD/svg10.dtd">
<svg version="1.0" xmlns="http://www.w3.org/2000/svg"
 width="512.000000pt" height="381.000000pt" viewBox="0 0 512.000000 381.000000"
 preserveAspectRatio="xMidYMid meet">

<g transform="translate(0.000000,381.000000) scale(0.100000,-0.100000)"
fill="#E1E1E6" stroke="none">
<path d="M840 3760 c-8 -5 -27 -10 -42 -10 -16 0 -28 -4 -28 -10 0 -5 -7 -10
-15 -10 -8 0 -15 -4 -15 -9 0 -5 29 -9 64 -10 36 0 76 -3 90 -7 15 -3 32 -1
41 6 8 6 29 13 47 14 56 5 58 6 58 17 0 6 -17 8 -47 5 -37 -4 -42 -3 -23 4 19
7 12 8 -26 4 -32 -4 -54 -1 -59 5 -8 14 -25 14 -45 1z"/>
<path d="M638 3741 c-74 -8 -82 -18 -21 -26 26 -3 63 -8 81 -11 17 -3 32 -1
32 5 0 9 -29 43 -33 40 -1 -1 -28 -5 -59 -8z"/>
<path d="M1600 3740 c0 -5 9 -10 20 -10 11 0 20 5 20 10 0 6 -9 10 -20 10 -11
0 -20 -4 -20 -10z"/>
<path d="M1678 3740 c-25 -15 -22 -39 5 -44 119 -22 149 -26 185 -26 23 0 42
4 42 10 0 15 -48 43 -64 37 -7 -3 -23 1 -35 9 -27 19 -111 28 -133 14z"/>
<path d="M1358 3733 c6 -2 18 -2 25 0 6 3 1 5 -13 5 -14 0 -19 -2 -12 -5z"/>
<path d="M1328 3693 c6 -2 18 -2 25 0 6 3 1 5 -13 5 -14 0 -19 -2 -12 -5z"/>
<path d="M1931 3679 c-13 -34 -6 -39 47 -33 102 12 118 25 45 39 -21 3 -48 9
-60 12 -17 4 -25 -1 -32 -18z"/>
<path d="M2093 3653 c9 -2 23 -2 30 0 6 3 -1 5 -18 5 -16 0 -22 -2 -12 -5z"/>
<path d="M2016 3632 c-12 -21 -69 -43 -77 -31 -4 6 -11 9 -17 5 -6 -3 -15 1
-20 10 -11 20 -47 11 -39 -9 3 -9 -24 -20 -94 -36 -60 -14 -99 -28 -99 -36 0
-8 -9 -10 -26 -7 -19 3 -25 1 -20 -7 5 -7 -2 -11 -18 -11 -28 0 -35 -17 -11
-26 8 -4 15 -11 15 -17 0 -5 -8 -2 -19 7 -15 14 -23 15 -45 5 -25 -12 -30 -21
-27 -44 1 -5 -6 -1 -14 9 -8 11 -13 28 -9 38 8 25 -20 34 -47 15 l-21 -15 22
-12 c21 -11 21 -12 3 -25 -26 -20 -33 -18 -33 10 0 15 -6 25 -14 25 -8 0 -28
8 -45 17 -29 17 -31 17 -45 -2 -9 -11 -16 -30 -16 -41 0 -12 -8 -25 -17 -29
-17 -6 -17 -7 0 -19 9 -7 17 -20 17 -29 0 -9 15 -20 35 -27 19 -6 37 -15 40
-20 3 -4 -28 3 -68 15 -39 13 -99 27 -132 33 -33 5 -70 13 -82 17 -37 12 -27
-13 12 -29 19 -8 35 -20 35 -25 0 -16 -11 -13 -27 7 -10 12 -16 13 -19 5 -8
-19 -74 -28 -85 -12 -7 11 -9 10 -9 -3 0 -10 -4 -18 -10 -18 -5 0 -10 7 -10
15 0 8 -3 15 -7 15 -8 0 -69 -19 -98 -31 -11 -4 -30 -11 -42 -14 -13 -4 -23
-13 -23 -21 0 -16 -45 -20 -55 -4 -3 6 1 10 9 10 9 0 16 4 16 8 0 19 -27 32
-70 32 -35 -1 -41 -3 -27 -11 9 -5 17 -19 17 -29 0 -11 5 -20 10 -20 6 0 10
-4 10 -10 0 -5 -9 -10 -20 -10 -11 0 -20 4 -20 9 0 6 -18 -2 -40 -17 -26 -16
-39 -31 -35 -40 4 -11 -2 -13 -27 -8 -77 14 -88 14 -93 5 -4 -5 1 -9 10 -9 9
0 24 -7 33 -16 15 -15 14 -16 -8 -9 -35 10 -50 24 -50 46 0 10 -8 23 -17 29
-17 11 -17 11 0 6 78 -25 187 -13 187 19 0 16 -27 45 -41 45 -5 0 -11 0 -14 0
-3 0 -25 9 -49 20 -24 10 -66 22 -93 26 -26 3 -54 11 -60 16 -7 6 -22 8 -33 5
-12 -3 -20 0 -20 8 0 14 -85 39 -101 30 -5 -4 -9 -25 -9 -49 0 -32 6 -48 23
-64 13 -12 28 -22 33 -22 20 0 60 -49 73 -88 13 -37 12 -43 -8 -71 -12 -16
-28 -45 -36 -64 -13 -31 -13 -36 2 -41 26 -11 5 -20 -60 -28 -111 -12 -127
-18 -127 -43 0 -12 -7 -36 -16 -53 -8 -18 -13 -41 -9 -51 4 -14 0 -23 -15 -31
-23 -12 -27 -30 -6 -30 8 0 28 -11 44 -25 68 -57 93 -165 51 -219 -32 -41 -14
-51 79 -49 42 2 84 0 94 -3 18 -5 58 -67 58 -89 0 -29 20 -24 36 10 9 19 20
37 24 40 14 8 60 -20 55 -33 -3 -8 3 -16 15 -19 11 -3 20 -12 20 -19 0 -17 4
-17 60 0 41 12 48 12 85 -7 22 -11 54 -29 70 -41 17 -12 39 -26 50 -32 23 -13
31 -42 16 -57 -17 -17 -92 -17 -148 0 -29 9 -53 20 -53 24 0 12 -94 -3 -119
-18 -16 -10 -39 -14 -72 -11 -33 3 -53 1 -60 -8 -7 -9 -5 -14 8 -17 10 -2 5
-3 -12 0 -17 2 -44 -4 -62 -14 -33 -18 -46 -37 -18 -27 10 4 15 0 15 -14 0
-11 8 -23 17 -25 17 -4 17 -5 1 -6 -10 0 -18 -8 -18 -16 0 -8 8 -15 18 -16 10
0 12 -3 5 -6 -22 -8 -14 -21 10 -17 12 2 17 2 10 -2 -17 -8 -4 -34 18 -34 12
0 16 -5 13 -15 -4 -8 -1 -15 5 -15 6 0 11 7 11 15 0 18 9 19 33 0 19 -14 46
-10 59 9 5 8 18 5 39 -7 38 -21 63 -22 79 -2 7 9 22 14 34 13 16 -2 22 -12 26
-43 5 -38 -16 -126 -41 -169 -17 -29 7 -108 47 -154 19 -22 34 -47 34 -55 0
-9 4 -18 9 -21 5 -3 18 -26 30 -51 12 -25 26 -45 31 -45 18 0 50 -64 50 -98 0
-24 10 -43 38 -71 55 -57 112 -152 111 -186 0 -17 5 -54 12 -82 11 -47 16 -53
38 -53 15 1 37 7 51 15 14 8 33 14 43 15 28 0 217 94 217 107 0 15 52 43 80
43 11 0 23 7 27 16 3 8 16 20 29 25 13 4 24 15 24 23 0 8 9 18 20 21 14 4 20
15 20 36 0 23 4 29 18 27 10 -2 17 3 17 13 0 9 5 23 11 30 24 30 23 48 -4 79
-14 16 -34 30 -43 30 -33 0 -69 39 -69 76 0 19 -4 34 -9 34 -7 0 -43 -41 -62
-72 -7 -11 -91 -29 -98 -22 -2 2 -7 21 -10 41 -4 24 -12 38 -21 38 -8 0 -26
13 -40 30 -14 16 -35 40 -47 53 -29 32 -37 60 -23 77 21 25 51 12 77 -33 14
-23 37 -49 52 -56 14 -8 36 -23 49 -34 26 -23 90 -24 115 -4 16 14 27 6 27
-19 0 -10 8 -22 18 -28 33 -17 148 -29 240 -24 87 5 93 5 112 -17 11 -13 20
-27 20 -31 0 -4 8 -10 18 -14 9 -3 31 -17 47 -31 17 -15 24 -23 18 -20 -26 14
-12 -21 20 -52 39 -38 46 -39 81 -11 24 19 26 19 28 2 0 -10 1 -25 0 -33 0 -8
6 -39 15 -70 8 -30 18 -69 23 -87 4 -17 17 -47 28 -65 11 -18 23 -44 27 -58 7
-23 51 -123 93 -210 21 -44 48 -50 64 -15 8 17 18 25 32 23 16 -2 20 -12 22
-50 5 -81 27 -104 72 -72 29 20 28 38 -6 99 -27 50 -57 69 -64 41 -2 -10 -8
-13 -17 -7 -11 7 -10 12 5 27 12 12 19 35 20 59 1 22 3 54 4 70 2 17 -1 49 -5
73 -6 35 -4 42 9 42 9 0 19 7 22 15 4 8 13 15 20 15 8 0 18 8 21 17 4 10 19
28 35 41 15 13 36 37 45 53 10 16 22 29 29 29 18 0 44 35 44 58 0 22 7 26 45
23 11 -1 41 5 68 13 l47 14 14 -32 c7 -18 26 -43 42 -57 16 -14 30 -30 32 -37
1 -7 11 -21 23 -33 15 -15 20 -31 18 -57 -2 -21 0 -43 5 -50 12 -19 43 -14 72
13 15 14 29 23 32 20 3 -2 17 -42 32 -87 19 -58 25 -87 18 -95 -7 -9 -6 -13 3
-13 12 0 12 -2 0 -9 -11 -7 -10 -11 5 -20 14 -9 15 -14 6 -17 -6 -3 -9 -11 -5
-17 4 -7 8 -37 8 -67 0 -32 4 -55 11 -55 18 0 44 -32 44 -54 0 -13 6 -21 16
-21 10 0 14 -5 10 -15 -3 -9 -2 -23 3 -33 5 -9 17 -35 27 -57 11 -22 26 -45
34 -51 42 -32 64 -53 55 -54 -5 0 -23 11 -39 25 -16 14 -35 25 -42 25 -7 0
-42 29 -77 65 -46 47 -71 65 -90 65 -14 0 -29 4 -32 10 -9 15 -22 12 -29 -6
-4 -10 11 -33 44 -66 39 -39 49 -56 45 -72 -4 -14 -3 -17 3 -8 6 9 13 7 29
-10 26 -30 36 -68 17 -68 -8 0 -14 -10 -14 -22 1 -21 2 -22 14 -5 7 9 18 17
23 17 14 0 37 -37 52 -82 17 -51 138 -180 161 -173 23 7 37 -13 16 -21 -22 -8
-20 -24 3 -24 10 0 24 -7 31 -15 6 -7 33 -17 58 -20 26 -3 63 -10 82 -16 19
-5 58 -12 85 -15 93 -10 100 -12 139 -22 22 -6 44 -8 50 -5 6 4 47 8 91 9 44
1 107 5 140 8 57 7 59 6 34 -8 -14 -8 -34 -27 -44 -42 l-17 -27 28 7 c16 4 36
13 44 21 8 7 33 21 54 31 52 25 59 46 14 39 -28 -5 -30 -4 -10 4 12 6 22 15
22 21 0 18 -28 11 -43 -11 -10 -13 -17 -17 -22 -9 -4 6 -15 8 -26 5 -34 -11
-187 -14 -221 -5 -20 6 -36 6 -43 0 -7 -6 -20 -7 -30 -4 -10 4 -21 1 -26 -7
-6 -10 -9 -11 -9 -1 0 16 -47 35 -80 33 -20 -1 -22 1 -10 9 8 5 24 10 35 10
39 1 -8 20 -48 20 -21 0 -48 5 -60 11 -16 9 -22 9 -25 0 -5 -16 -63 -13 -83 5
-14 13 -37 19 -81 23 -5 1 -8 24 -8 51 0 44 3 52 24 60 13 5 33 6 45 3 15 -4
21 -1 21 12 0 13 -6 16 -22 12 -24 -7 -58 17 -58 40 0 18 -29 17 -36 -2 -8
-20 -24 -9 -24 16 0 12 -7 19 -20 19 -22 0 -25 7 -10 30 6 9 5 19 -3 29 -10
11 -8 13 10 7 29 -9 36 6 18 40 -8 16 -13 38 -10 49 3 11 2 14 -1 7 -11 -24
-24 0 -24 44 0 38 -6 51 -41 89 -23 25 -48 45 -55 45 -16 0 -44 62 -44 97 0
22 -2 24 -15 13 -13 -10 -15 -9 -15 9 0 38 24 151 32 151 5 0 8 -7 8 -15 0 -8
8 -15 18 -15 18 0 72 -51 72 -67 0 -13 50 -56 50 -43 0 6 5 8 10 5 6 -3 10
-22 10 -41 0 -19 2 -34 6 -34 12 0 74 56 74 68 0 6 6 12 13 12 7 0 28 14 46
31 32 29 33 33 28 84 -7 70 -22 97 -101 179 -40 41 -66 77 -66 90 0 35 57 90
96 91 27 1 33 -3 37 -24 4 -18 -1 -30 -15 -39 -12 -9 -18 -23 -16 -40 2 -23 8
-27 33 -27 37 0 65 46 46 77 -6 10 -11 24 -11 32 0 16 35 31 63 27 9 -1 17 3
17 8 0 6 11 11 24 11 14 0 28 5 31 10 4 6 21 16 38 24 28 12 76 53 115 100 6
8 12 27 12 41 0 14 9 44 19 68 11 23 21 58 23 77 3 32 0 35 -27 41 -25 5 -27
7 -12 14 24 10 13 41 -27 81 -17 17 -42 44 -56 61 -14 16 -32 32 -40 35 -13 4
-12 10 4 42 11 20 23 37 28 37 4 1 14 2 21 3 27 2 10 29 -28 42 -22 7 -41 14
-42 14 -1 0 -9 -8 -19 -17 -16 -16 -18 -16 -32 5 -8 12 -22 22 -32 22 -10 0
-23 7 -30 15 -10 13 -9 15 9 15 12 0 24 7 28 16 21 56 81 76 68 23 -3 -13 -1
-30 4 -38 7 -11 15 -10 41 9 41 29 93 19 98 -20 5 -31 21 -52 36 -47 16 6 47
-13 40 -24 -3 -6 1 -18 9 -27 8 -9 17 -34 21 -54 8 -43 22 -47 80 -23 43 18
46 39 12 93 -25 40 -90 102 -106 102 -16 0 -11 19 10 43 14 14 19 30 16 47 -4
16 1 33 13 48 16 18 24 21 45 12 53 -20 101 68 108 195 2 52 -2 67 -30 116
-37 65 -39 73 -13 60 18 -10 141 -183 141 -199 0 -5 9 -17 20 -27 18 -16 20
-16 20 -2 0 20 11 22 29 5 11 -11 13 -10 7 5 -3 10 -6 21 -6 23 0 2 -5 4 -11
4 -17 0 -69 57 -69 75 0 18 21 20 38 3 6 -6 14 -10 16 -7 2 2 -31 36 -74 74
-43 39 -81 77 -84 86 -9 22 -86 83 -94 74 -4 -4 -1 -10 6 -12 6 -3 12 -9 12
-14 0 -15 -34 -10 -65 11 -37 25 -72 26 -77 3 -3 -14 -8 -10 -21 15 -12 22
-25 32 -41 32 -14 0 -26 -5 -28 -12 -2 -6 -10 -8 -17 -4 -9 6 -8 12 5 27 10
11 18 27 19 37 1 9 10 34 19 54 9 21 16 42 16 48 0 6 28 10 73 9 39 -1 99 2
132 6 38 4 55 3 47 -3 -21 -14 31 -24 84 -16 46 7 58 22 24 31 -27 7 -29 72
-2 75 51 5 68 1 89 -19 26 -27 43 -29 43 -8 0 9 10 20 23 24 19 8 20 10 5 16
-18 7 -25 25 -10 25 14 0 43 -60 35 -73 -9 -14 -13 -34 -15 -65 0 -12 -9 -29
-20 -36 -11 -8 -15 -17 -9 -20 5 -4 9 -14 8 -24 -2 -27 37 -73 139 -161 52
-45 91 -87 88 -93 -4 -6 -10 -5 -16 3 -7 10 -8 8 -3 -6 4 -11 11 -36 15 -55 5
-24 8 -28 9 -12 0 13 8 45 17 72 12 37 13 53 4 69 -9 17 -8 21 5 21 19 0 20
16 0 24 -8 3 -15 12 -15 21 0 8 7 15 15 15 22 0 18 17 -7 35 -19 13 -20 17 -9
25 12 7 12 11 2 24 -7 8 -21 18 -32 21 -10 4 -19 12 -19 20 0 15 -27 28 -41
19 -5 -3 -12 3 -15 13 -3 10 -10 26 -15 36 -7 13 -5 17 11 17 11 0 20 5 20 11
0 8 4 8 15 -1 11 -10 18 -9 30 4 20 20 38 20 75 1 18 -9 31 -11 35 -5 3 6 3
10 0 10 -3 0 2 13 11 29 21 35 52 51 99 51 19 0 35 4 35 9 0 5 -27 24 -59 42
-52 29 -58 35 -48 51 14 22 66 24 105 4 32 -16 133 -39 140 -31 3 3 -3 14 -13
25 -10 11 -13 20 -7 20 7 0 12 6 12 14 0 17 -72 42 -145 51 -27 4 -70 13 -95
21 -141 45 -414 94 -522 94 -20 0 -5 -22 25 -35 l32 -14 -30 6 c-16 4 -34 12
-40 18 -14 17 -43 26 -50 15 -4 -6 -53 -10 -110 -10 -96 0 -105 2 -122 23 -17
22 -25 23 -128 24 -115 0 -135 3 -226 33 -30 10 -69 19 -85 19 -56 1 -199 18
-169 20 l30 3 -30 12 c-16 8 -50 16 -75 20 -39 5 -43 4 -28 -8 10 -7 15 -16
11 -19 -3 -4 8 -7 27 -7 28 0 31 -2 19 -16 -10 -13 -10 -17 2 -25 23 -14 -106
-18 -150 -4 -21 7 -22 5 -16 -14 3 -11 4 -21 1 -21 -13 0 -65 27 -96 51 -43
33 -87 47 -160 51 -40 2 -54 -1 -52 -10 3 -15 -104 -17 -113 -2 -3 6 -39 10
-80 10 -52 0 -78 4 -89 15 -8 8 -21 15 -29 15 -8 0 -14 8 -13 17 2 30 -60 53
-141 53 -40 0 -73 4 -75 10 -5 15 -143 26 -152 12z m-311 -112 c3 -5 2 -10 -4
-10 -5 0 -13 5 -16 10 -3 6 -2 10 4 10 5 0 13 -4 16 -10z m662 4 c-3 -3 -12
-4 -19 -1 -8 3 -5 6 6 6 11 1 17 -2 13 -5z m-37 -18 c0 -2 -7 -7 -16 -10 -8
-3 -12 -2 -9 4 6 10 25 14 25 6z m-846 -117 c-8 -13 24 -49 44 -49 9 0 12 -3
9 -7 -4 -3 0 -14 9 -24 14 -16 14 -19 -5 -38 -26 -26 -46 -28 -36 -3 19 44 18
63 -4 69 -11 3 -21 7 -21 8 0 1 -7 19 -15 39 -15 36 -15 37 5 26 11 -6 18 -16
14 -21z m-1294 -480 c0 -23 -8 -23 -35 -3 -16 12 -17 16 -6 23 20 13 41 2 41
-20z m501 -448 c-9 -6 -10 -10 -2 -16 21 -12 -8 -35 -45 -35 -59 0 -53 22 11
46 37 14 55 17 36 5z"/>
<path d="M1700 3622 c0 -4 9 -8 20 -8 11 0 20 4 20 8 0 4 -9 8 -20 8 -11 0
-20 -4 -20 -8z"/>
<path d="M1135 3610 c-11 -5 -42 -9 -68 -9 -55 -1 -147 -37 -147 -57 0 -7 -9
-18 -21 -24 -11 -7 -18 -14 -15 -17 3 -3 -3 -18 -14 -33 l-20 -28 23 -14 c33
-22 56 -28 114 -34 60 -6 73 10 23 28 -44 15 -53 38 -26 68 40 45 83 68 147
80 71 13 102 26 94 41 -7 11 -63 11 -90 -1z"/>
<path d="M2970 3590 c-13 -8 -13 -11 0 -24 18 -17 89 -38 103 -29 5 3 28 5 51
5 22 -1 48 3 56 8 30 19 -8 33 -95 37 -48 1 -90 5 -94 7 -4 3 -13 1 -21 -4z"/>
<path d="M1560 3581 c0 -5 6 -14 14 -20 11 -9 15 -8 20 5 9 23 8 24 -14 24
-11 0 -20 -4 -20 -9z"/>
<path d="M2925 3570 c3 -5 10 -10 16 -10 5 0 9 5 9 10 0 6 -7 10 -16 10 -8 0
-12 -4 -9 -10z"/>
<path d="M3213 3559 c26 -15 137 -24 137 -12 0 15 -36 23 -100 23 -44 -1 -51
-3 -37 -11z"/>
<path d="M2995 3520 c3 -5 13 -10 21 -10 8 0 12 5 9 10 -3 6 -13 10 -21 10 -8
0 -12 -4 -9 -10z"/>
<path d="M4292 3424 c3 -16 11 -18 48 -15 72 5 69 20 -6 29 -41 4 -46 3 -42
-14z"/>
<path d="M811 3361 c-19 -12 -5 -31 24 -31 32 0 40 16 16 29 -23 13 -22 13
-40 2z"/>
<path d="M4956 3141 c5 -4 26 -11 47 -14 33 -5 37 -4 27 8 -7 8 -29 15 -48 15
-21 0 -32 -4 -26 -9z"/>
<path d="M5085 3020 c3 -5 14 -10 23 -10 15 0 15 2 2 10 -20 13 -33 13 -25 0z"/>
<path d="M4453 2958 c2 -7 10 -13 17 -13 7 0 15 6 18 13 2 7 -5 12 -18 12 -13
0 -20 -5 -17 -12z"/>
<path d="M4670 2815 c0 -2 14 -11 30 -20 33 -17 40 -10 13 11 -18 13 -43 19
-43 9z"/>
<path d="M4745 2790 c3 -5 13 -10 21 -10 8 0 12 5 9 10 -3 6 -13 10 -21 10 -8
0 -12 -4 -9 -10z"/>
<path d="M4985 2720 c-3 -5 3 -10 15 -10 12 0 18 5 15 10 -3 6 -10 10 -15 10
-5 0 -12 -4 -15 -10z"/>
<path d="M4525 2510 c3 -5 8 -10 11 -10 2 0 4 5 4 10 0 6 -5 10 -11 10 -5 0
-7 -4 -4 -10z"/>
<path d="M4515 2470 c-3 -5 -1 -10 4 -10 6 0 11 5 11 10 0 6 -2 10 -4 10 -3 0
-8 -4 -11 -10z"/>
<path d="M4475 2429 c-4 -6 -5 -13 -2 -16 7 -7 27 6 27 18 0 12 -17 12 -25 -2z"/>
<path d="M4221 2379 c30 -28 39 -59 17 -59 -7 0 -13 -13 -14 -30 -1 -18 4 -30
11 -30 7 0 16 -7 19 -16 3 -9 12 -14 19 -11 9 3 12 -4 9 -27 -2 -21 2 -37 12
-45 17 -14 20 -40 10 -78 -7 -26 -34 -39 -45 -21 -11 18 -18 7 -20 -33 -3 -34
-3 -35 -52 -37 -41 -2 -54 -7 -78 -33 -16 -17 -29 -34 -29 -38 0 -4 -11 -17
-25 -29 -14 -12 -25 -28 -24 -34 0 -8 4 -7 12 4 10 15 13 14 34 -10 13 -15 23
-32 23 -39 0 -14 38 -28 48 -18 4 4 7 21 7 38 0 27 3 32 23 29 14 -2 21 1 20
10 -2 7 4 12 13 10 9 -1 20 5 23 14 5 14 9 14 22 3 13 -11 19 -8 38 15 17 21
30 28 58 28 48 0 78 30 60 58 -7 11 -12 31 -12 44 0 14 -4 27 -9 31 -5 3 -7
20 -4 39 4 29 0 40 -33 77 -22 24 -47 51 -57 61 -25 23 -4 32 31 14 30 -16 44
-13 36 8 -2 6 10 17 28 25 18 7 27 15 21 18 -21 8 -15 28 17 51 33 25 39 42
14 42 -9 0 -18 -9 -21 -20 -3 -11 -12 -20 -19 -20 -8 0 -14 -4 -14 -9 0 -16
-71 -2 -114 23 -23 14 -52 24 -63 23 -19 -1 -18 -3 8 -28z"/>
<path d="M4275 2090 c3 -5 8 -10 11 -10 2 0 4 5 4 10 0 6 -5 10 -11 10 -5 0
-7 -4 -4 -10z"/>
<path d="M571 1978 c-31 -8 -32 -11 -19 -25 19 -18 54 -10 68 18 12 22 5 23
-49 7z"/>
<path d="M4020 1935 c0 -8 5 -15 10 -15 6 0 10 7 10 15 0 8 -4 15 -10 15 -5 0
-10 -7 -10 -15z"/>
<path d="M3930 1890 c0 -5 7 -10 15 -10 8 0 15 5 15 10 0 6 -7 10 -15 10 -8 0
-15 -4 -15 -10z"/>
<path d="M4135 1769 c-4 -6 -5 -13 -2 -16 7 -7 27 6 27 18 0 12 -17 12 -25 -2z"/>
<path d="M4115 1676 c-3 -9 -7 -23 -10 -31 -7 -22 1 -18 19 9 10 16 12 27 6
31 -6 3 -12 -1 -15 -9z"/>
<path d="M4080 1590 c0 -11 2 -20 5 -20 2 0 9 9 15 20 9 16 8 20 -5 20 -8 0
-15 -9 -15 -20z"/>
<path d="M3840 1518 c-26 -43 -25 -61 4 -95 l24 -28 12 40 c14 47 10 107 -7
112 -7 3 -22 -10 -33 -29z"/>
<path d="M3958 1503 c7 -3 16 -2 19 1 4 3 -2 6 -13 5 -11 0 -14 -3 -6 -6z"/>
<path d="M3880 1217 c0 -24 -5 -48 -11 -54 -7 -7 -5 -22 7 -49 10 -22 18 -46
18 -54 1 -19 38 -80 48 -80 15 0 21 30 9 44 -8 10 -9 16 -1 21 5 3 10 -2 10
-11 0 -10 3 -14 6 -11 12 11 44 -13 44 -33 0 -18 11 -24 47 -23 6 0 9 -6 6
-13 -6 -15 -43 -20 -43 -5 0 5 -9 11 -20 14 -11 3 -20 10 -20 17 0 6 5 8 10 5
6 -3 10 -2 10 3 0 6 -6 12 -14 15 -17 7 -23 -20 -17 -71 2 -25 7 -32 18 -28
11 5 13 2 9 -10 -7 -19 21 -57 36 -48 5 3 4 -3 -4 -15 -7 -12 -18 -21 -24 -21
-12 0 -24 -31 -24 -63 0 -11 6 -17 13 -15 6 3 12 11 12 18 0 8 12 17 28 21 24
6 27 4 27 -16 0 -14 13 -32 35 -49 37 -29 40 -27 37 29 0 11 2 14 4 8 9 -20
21 -15 27 9 9 32 -21 130 -46 151 -16 14 -18 20 -8 27 21 12 0 64 -27 68 -22
3 -24 7 -26 47 -1 11 -8 20 -16 20 -24 1 -60 16 -60 25 0 5 -9 12 -20 15 -22
7 -27 31 -9 37 11 4 14 38 7 87 -2 19 -10 25 -40 28 l-38 4 0 -44z m230 -359
c0 -6 -7 -8 -15 -4 -9 3 -15 0 -15 -9 0 -21 -19 -29 -26 -10 -9 22 27 56 44
43 6 -6 12 -15 12 -20z"/>
<path d="M940 1181 c0 -6 5 -13 10 -16 6 -3 10 1 10 9 0 9 -4 16 -10 16 -5 0
-10 -4 -10 -9z"/>
<path d="M4821 1034 c0 -11 3 -14 6 -6 3 7 2 16 -1 19 -3 4 -6 -2 -5 -13z"/>
<path d="M2867 1020 c-10 -35 -9 -70 2 -70 15 0 20 25 12 61 -7 33 -7 33 -14
9z"/>
<path d="M3890 975 c0 -19 -36 -84 -65 -115 -26 -29 -42 -70 -26 -70 6 0 11 4
11 9 0 8 14 25 81 98 14 15 16 22 7 25 -9 3 -8 11 4 30 16 24 15 38 -4 38 -4
0 -8 -7 -8 -15z"/>
<path d="M2900 799 c0 -5 5 -7 10 -4 6 3 10 8 10 11 0 2 -4 4 -10 4 -5 0 -10
-5 -10 -11z"/>
<path d="M2910 771 c0 -6 5 -13 10 -16 6 -3 10 1 10 9 0 9 -4 16 -10 16 -5 0
-10 -4 -10 -9z"/>
<path d="M3777 743 c-9 -21 -35 -51 -56 -67 -21 -15 -44 -39 -51 -52 -7 -13
-28 -28 -47 -35 -21 -7 -35 -19 -39 -34 -5 -21 -9 -23 -32 -14 -46 18 -63 -26
-41 -103 5 -21 14 -38 19 -38 6 0 10 -13 10 -29 0 -33 22 -56 45 -47 9 3 18 0
21 -8 4 -11 13 -12 35 -6 16 5 31 5 34 0 3 -5 12 -7 20 -3 9 3 15 -1 15 -11 0
-18 13 -20 41 -6 14 8 19 7 19 -2 0 -8 3 -9 10 -2 5 5 11 31 14 57 3 32 12 55
25 66 13 11 21 30 21 50 0 26 4 31 25 31 30 0 32 11 4 36 -19 17 -19 19 -2 25
16 7 16 8 1 8 -28 1 -36 70 -10 79 7 2 12 10 12 19 0 9 6 12 19 8 10 -3 24 1
31 10 8 10 9 15 1 15 -6 0 -11 -4 -11 -10 0 -5 -5 -10 -11 -10 -5 0 -8 4 -4 9
3 5 -7 17 -23 26 -16 10 -37 30 -48 46 -10 16 -22 29 -25 29 -3 0 -13 -17 -22
-37z"/>
<path d="M4170 640 c0 -19 3 -21 12 -12 9 9 9 15 0 24 -9 9 -12 7 -12 -12z"/>
<path d="M3462 631 c2 -7 7 -12 11 -12 12 1 9 15 -3 20 -7 2 -11 -2 -8 -8z"/>
<path d="M4125 610 c3 -5 8 -10 11 -10 2 0 4 5 4 10 0 6 -5 10 -11 10 -5 0 -7
-4 -4 -10z"/>
<path d="M3002 578 c3 -7 13 -15 24 -17 16 -3 17 -1 5 13 -16 19 -34 21 -29 4z"/>
<path d="M4221 554 c-11 -15 -21 -41 -21 -58 0 -17 -3 -41 -6 -53 -6 -20 -3
-23 25 -23 28 0 31 2 21 19 -14 27 -13 34 4 28 10 -4 14 3 14 29 0 24 -4 34
-16 34 -13 0 -12 3 4 14 14 11 16 18 8 26 -9 9 -17 5 -33 -16z"/>
<path d="M4092 517 c-20 -20 -25 -20 -79 -9 -38 8 -59 9 -61 2 -2 -6 -10 -10
-17 -10 -8 0 -16 -8 -18 -17 -3 -10 -11 -40 -17 -68 -7 -27 -17 -54 -21 -59
-14 -16 -10 -46 7 -53 13 -5 15 -14 10 -45 -6 -34 -4 -40 13 -45 11 -3 22 -12
24 -22 3 -9 5 21 6 67 1 52 5 82 12 82 6 0 8 -7 5 -16 -4 -9 -2 -22 2 -28 5
-6 12 -24 16 -39 6 -27 44 -52 58 -38 4 3 9 21 13 39 4 24 2 32 -10 32 -8 0
-15 9 -15 20 0 12 -7 31 -15 43 -13 20 -13 24 5 35 12 7 21 8 25 2 12 -20 25
-9 25 21 0 29 -2 31 -27 24 -16 -4 -32 -8 -38 -9 -5 -1 -16 -5 -23 -10 -19
-12 -47 18 -38 40 5 14 17 16 77 12 66 -5 72 -4 95 21 13 14 24 29 24 33 0 17
-18 15 -38 -5z"/>
<path d="M3057 524 c-7 -7 14 -44 25 -44 5 0 8 6 8 14 0 16 -24 38 -33 30z"/>
<path d="M3327 450 c-6 -22 0 -25 22 -11 7 5 10 14 7 20 -11 17 -23 13 -29 -9z"/>
<path d="M4317 429 c9 -18 24 -34 34 -36 11 -3 19 -9 19 -14 0 -6 10 -14 23
-19 17 -7 18 -9 5 -9 -20 -1 -24 -16 -8 -26 6 -3 10 -14 10 -25 0 -10 7 -21
16 -24 22 -9 26 -8 18 5 -7 12 31 4 51 -10 6 -4 30 -14 54 -21 67 -22 93 -78
53 -118 -35 -35 -28 -45 27 -38 33 4 52 3 57 -5 10 -16 24 9 24 44 0 38 29
126 52 159 11 16 17 32 13 38 -3 5 -29 16 -57 25 -28 8 -57 20 -66 27 -8 7
-42 13 -78 13 -62 0 -63 -1 -42 -17 22 -16 22 -17 4 -37 -11 -12 -22 -21 -26
-21 -11 0 -30 48 -30 75 0 18 -9 28 -34 40 -31 15 -37 15 -65 0 -18 -9 -31
-11 -31 -5 0 5 5 10 10 10 6 0 10 5 10 10 0 6 -13 10 -29 10 l-29 0 15 -31z"/>
<path d="M3990 439 c0 -5 5 -7 10 -4 6 3 10 8 10 11 0 2 -4 4 -10 4 -5 0 -10
-5 -10 -11z"/>
<path d="M4495 424 c-20 -15 -12 -17 19 -5 11 4 15 10 10 13 -5 4 -18 0 -29
-8z"/>
<path d="M3112 404 c1 -9 9 -19 16 -22 9 -3 13 2 10 14 -1 9 -9 19 -16 22 -9
3 -13 -2 -10 -14z"/>
<path d="M4200 395 c0 -9 9 -15 21 -15 18 0 19 2 9 15 -7 8 -16 15 -21 15 -5
0 -9 -7 -9 -15z"/>
<path d="M3495 390 c-3 -5 -1 -10 4 -10 6 0 11 5 11 10 0 6 -2 10 -4 10 -3 0
-8 -4 -11 -10z"/>
<path d="M4085 380 c3 -5 17 -10 31 -10 13 0 24 -4 24 -10 0 -18 18 -10 23 10
5 18 0 20 -40 20 -27 0 -42 -4 -38 -10z"/>
<path d="M4290 381 c0 -5 7 -11 15 -15 9 -3 15 0 15 9 0 8 -7 15 -15 15 -8 0
-15 -4 -15 -9z"/>
<path d="M3147 373 c-3 -5 5 -22 18 -39 29 -34 33 -21 6 19 -10 16 -21 25 -24
20z"/>
<path d="M4215 330 c-3 -5 -19 -7 -35 -3 -24 4 -30 2 -30 -11 0 -23 27 -31 47
-15 12 10 17 11 20 2 3 -9 12 -9 35 -1 24 8 37 7 65 -6 20 -9 38 -14 41 -11 3
3 1 5 -5 5 -5 0 -15 11 -21 25 -10 22 -18 25 -61 25 -27 0 -53 -4 -56 -10z"/>
<path d="M3240 230 c0 -5 5 -10 11 -10 5 0 7 5 4 10 -3 6 -8 10 -11 10 -2 0
-4 -4 -4 -10z"/>
<path d="M4050 230 c0 -5 5 -10 11 -10 5 0 7 5 4 10 -3 6 -8 10 -11 10 -2 0
-4 -4 -4 -10z"/>
<path d="M4395 219 c-4 -6 -5 -13 -2 -16 7 -7 27 6 27 18 0 12 -17 12 -25 -2z"/>
<path d="M4450 211 c-16 -30 -12 -53 8 -49 11 2 18 14 20 36 4 35 -12 43 -28
13z"/>
<path d="M3730 159 c0 -5 5 -7 10 -4 6 3 10 8 10 11 0 2 -4 4 -10 4 -5 0 -10
-5 -10 -11z"/>
<path d="M3935 150 c3 -5 11 -10 16 -10 6 0 7 5 4 10 -3 6 -11 10 -16 10 -6 0
-7 -4 -4 -10z"/>
<path d="M4341 151 c-15 -10 -23 -51 -10 -51 9 0 39 40 39 52 0 10 -12 10 -29
-1z"/>
<path d="M4270 120 c0 -5 5 -10 10 -10 6 0 10 5 10 10 0 6 -4 10 -10 10 -5 0
-10 -4 -10 -10z"/>
<path d="M4200 110 c0 -5 7 -10 16 -10 8 0 12 5 9 10 -3 6 -10 10 -16 10 -5 0
-9 -4 -9 -10z"/>
<path d="M3867 53 c-4 -3 7 -15 24 -25 36 -22 62 -11 39 17 -13 15 -51 21 -63
8z"/>
<path d="M3965 10 c-3 -5 -1 -10 4 -10 6 0 11 5 11 10 0 6 -2 10 -4 10 -3 0
-8 -4 -11 -10z"/>
</g>
</svg>
