<?xml version="1.0" standalone="no"?>
<!DOCTYPE svg PUBLIC "-//W3C//DTD SVG 20010904//EN"
 "http://www.w3.org/TR/2001/REC-SVG-20010904/DTD/svg10.dtd">
<svg version="1.0" xmlns="http://www.w3.org/2000/svg"
 width="200.000000pt" height="200.000000pt" viewBox="0 0 200.000000 200.000000"
 preserveAspectRatio="xMidYMid meet">

<g transform="translate(0.000000,200.000000) scale(0.100000,-0.100000)"
fill="#E1E1E6" stroke="none">
<path d="M1492 1631 c-10 -6 -8 -10 10 -14 37 -11 86 -8 94 4 5 9 -1 10 -20 5
-18 -4 -25 -3 -21 4 8 12 -44 14 -63 1z"/>
<path d="M1380 1620 c-24 -8 -24 -8 7 -9 17 -1 35 4 38 9 7 11 -9 11 -45 0z"/>
<path d="M874 1609 c-16 -4 -48 -7 -71 -8 -54 -1 -49 -18 14 -48 36 -17 49
-19 57 -9 28 32 43 37 60 21 9 -9 26 -15 38 -12 21 3 20 5 -12 20 l-35 16 40
1 c22 0 46 4 54 9 17 11 -103 19 -145 10z"/>
<path d="M1680 1525 c-36 -7 -72 -15 -81 -19 -15 -7 -65 -84 -58 -90 16 -14
53 -26 76 -26 l28 0 -25 20 -25 20 37 34 c20 20 55 40 80 46 24 6 52 15 63 20
18 8 18 9 -5 8 -14 0 -54 -6 -90 -13z"/>
<path d="M978 1385 c-32 -7 -64 -18 -73 -25 -8 -7 -25 -13 -38 -14 -12 0 -22
-6 -22 -11 0 -6 -16 -31 -36 -55 -20 -25 -38 -51 -41 -59 -2 -8 -15 -15 -29
-17 -14 -1 -41 -12 -62 -24 -32 -19 -37 -27 -37 -59 0 -26 7 -44 21 -57 20
-18 21 -18 59 3 l39 21 21 -35 c21 -36 26 -63 11 -63 -5 0 -16 -3 -24 -6 -11
-4 -14 2 -11 26 3 29 2 30 -19 19 -31 -17 -36 -28 -26 -62 10 -35 0 -47 -40
-47 -14 0 -38 -14 -57 -32 -72 -73 -96 -90 -120 -85 -15 3 -24 0 -24 -9 0 -7
-14 -14 -32 -16 -39 -4 -48 -23 -15 -32 37 -9 59 -49 49 -89 l-8 -32 -76 -1
c-101 -1 -108 -5 -108 -54 0 -23 -4 -50 -10 -60 -5 -10 -7 -32 -4 -49 5 -25
12 -31 32 -31 13 0 30 -7 36 -14 10 -13 18 -13 66 -1 57 15 104 54 94 79 -3 8
13 29 40 52 25 21 46 47 46 57 0 17 5 19 38 14 28 -5 46 -1 70 13 36 22 55 19
69 -12 5 -12 36 -40 69 -63 44 -31 59 -48 59 -66 0 -21 -6 -25 -40 -29 l-40
-5 28 -19 29 -19 26 34 c15 18 27 43 27 54 0 14 6 19 20 17 26 -5 12 10 -50
51 -27 18 -58 44 -69 60 -19 26 -19 28 -3 44 10 10 17 12 17 6 0 -6 9 -15 20
-18 11 -3 20 -12 20 -19 0 -7 12 -19 28 -26 58 -30 82 -52 82 -75 0 -13 11
-36 24 -52 13 -15 26 -38 30 -50 9 -28 20 -29 46 -3 l21 21 -21 26 -20 26 27
14 c16 8 40 12 54 9 15 -3 35 1 45 8 15 12 16 16 5 29 -10 13 -8 25 14 69 14
29 30 57 34 61 12 12 61 -3 61 -18 0 -25 24 -34 55 -20 19 9 24 14 13 14 -30
2 -20 28 13 40 18 6 36 11 40 11 12 0 -1 -33 -19 -47 -12 -10 -9 -14 19 -26
56 -23 135 -47 157 -47 12 0 23 -4 27 -9 6 -11 109 -71 121 -71 4 0 -4 12 -18
28 -26 27 -68 91 -68 104 0 4 20 21 44 38 l43 32 -22 46 c-12 26 -21 52 -18
58 7 20 82 25 164 13 43 -7 81 -10 84 -7 4 3 -5 18 -19 33 -15 16 -26 38 -26
50 0 29 -9 36 -30 23 -39 -25 -79 23 -42 51 19 14 20 18 7 41 -8 14 -15 39
-15 55 0 17 -9 55 -20 85 -11 30 -19 60 -20 67 0 6 20 23 45 37 25 15 45 31
45 36 0 14 -49 36 -95 44 -22 4 -49 9 -60 12 -13 3 -10 -1 8 -11 15 -9 25 -20
21 -26 -4 -7 -10 -6 -19 1 -9 7 -21 7 -41 0 -16 -6 -44 -8 -62 -5 -26 5 -48 0
-88 -20 -54 -27 -78 -27 -67 0 3 11 -2 15 -17 15 -16 0 -20 -4 -16 -15 3 -8 9
-22 13 -31 5 -13 2 -15 -15 -10 -26 9 -62 -9 -62 -30 0 -12 -8 -14 -37 -8 -37
6 -37 6 -18 -10 20 -17 20 -17 -5 -10 -32 8 -50 23 -50 39 0 8 -6 16 -12 19
-7 3 13 3 45 0 55 -5 87 4 87 26 0 11 -61 34 -150 56 -41 10 -77 21 -80 25
-10 13 -107 15 -162 4z m72 -136 c0 -14 -41 -48 -57 -49 -15 0 -15 -5 -7 -49
9 -43 32 -54 90 -41 51 12 97 5 73 -11 -8 -5 -30 -9 -50 -9 -37 0 -89 -19 -89
-33 0 -5 9 -5 20 -2 14 4 22 1 26 -10 9 -22 -1 -29 -25 -16 -16 9 -22 8 -31
-8 -5 -11 -10 -29 -10 -40 0 -26 -11 -29 -140 -35 -71 -3 -116 6 -87 17 10 4
17 1 17 -6 0 -7 7 -3 15 7 8 11 18 17 21 13 3 -3 23 3 44 14 28 15 37 25 33
38 -3 12 6 28 23 44 l28 26 -24 19 c-22 17 -23 23 -12 46 6 15 22 30 35 35 13
5 31 21 40 35 18 26 67 37 67 15z"/>
<path d="M72 1273 c-6 -2 -9 -10 -5 -16 8 -12 9 -17 12 -37 4 -29 123 -18 166
15 20 15 20 15 1 30 -11 8 -29 13 -40 10 -56 -12 -96 -14 -101 -5 -7 11 -13
11 -33 3z"/>
<path d="M432 1064 c-62 -27 -61 -93 1 -117 23 -9 21 -24 -3 -32 -11 -4 -17
-11 -14 -17 4 -6 0 -14 -7 -19 -11 -6 -10 -9 4 -14 15 -6 14 -9 -6 -27 -20
-18 -20 -19 -2 -13 11 4 43 10 70 12 49 5 75 22 75 50 0 7 -7 13 -15 13 -8 0
-15 6 -15 14 0 8 -12 28 -26 45 -19 23 -24 38 -20 56 5 21 3 25 -15 25 -21 0
-22 1 -4 20 21 23 21 23 -23 4z"/>
<path d="M330 955 c-7 -8 -19 -15 -27 -15 -8 0 -13 -8 -12 -17 1 -10 -1 -26
-6 -36 -11 -26 -2 -30 44 -16 34 10 43 18 51 47 5 19 7 39 4 44 -8 13 -41 9
-54 -7z"/>
<path d="M717 593 c-5 -7 -5 -18 -2 -23 4 -6 1 -17 -5 -25 -13 -15 -5 -55 11
-55 16 0 21 27 12 72 -5 27 -12 38 -16 31z"/>
<path d="M1090 376 c0 -2 11 -6 25 -8 13 -3 22 -1 19 3 -5 9 -44 13 -44 5z"/>
</g>
</svg>
