<?xml version="1.0" standalone="no"?>
<!DOCTYPE svg PUBLIC "-//W3C//DTD SVG 20010904//EN"
 "http://www.w3.org/TR/2001/REC-SVG-20010904/DTD/svg10.dtd">
<svg version="1.0" xmlns="http://www.w3.org/2000/svg"
 width="263.000000pt" height="262.000000pt" viewBox="0 0 263.000000 262.000000"
 preserveAspectRatio="xMidYMid meet">

<g transform="translate(0.000000,262.000000) scale(0.100000,-0.100000)"
fill="#E1E1E6" stroke="none">
<path d="M1840 2592 c0 -16 -3 -32 -6 -35 -10 -10 -44 12 -44 27 0 12 -20 26
-36 26 -11 0 -104 -94 -104 -105 0 -7 -10 -34 -22 -61 -13 -31 -21 -67 -20
-98 0 -29 -5 -58 -15 -72 -19 -30 -4 -55 30 -46 21 5 21 4 5 -15 -37 -42 -18
-59 41 -36 53 21 79 8 122 -59 17 -26 37 -48 45 -48 10 0 12 -8 8 -30 -8 -36
19 -53 40 -25 10 14 15 15 21 6 4 -7 2 -18 -4 -24 -20 -20 -12 -37 41 -93 73
-77 102 -93 171 -92 31 0 57 5 57 10 0 5 -11 28 -24 51 -35 59 -43 118 -22
162 10 20 14 44 11 55 -3 11 3 37 15 60 12 24 20 55 18 73 -3 30 -6 32 -38 30
-19 -1 -26 1 -15 4 36 9 35 18 -4 56 -21 20 -41 49 -45 64 -4 19 -31 47 -84
88 -51 40 -80 71 -87 91 -11 34 -33 64 -46 64 -5 0 -9 -13 -9 -28z"/>
<path d="M1462 2419 c-29 -24 -52 -48 -52 -55 0 -6 -9 -14 -21 -17 -17 -5 -20
-12 -19 -44 5 -77 3 -81 -24 -48 -19 24 -27 27 -37 18 -10 -10 -10 -18 -1 -38
13 -28 44 -45 50 -27 2 6 11 3 23 -9 27 -27 45 -14 24 18 -19 28 -15 42 5 18
7 -8 21 -15 32 -15 25 0 35 -28 16 -46 -11 -12 -21 -13 -43 -4 -42 16 -54 -3
-21 -33 14 -13 26 -31 26 -40 0 -33 104 -33 131 -1 16 20 -2 33 -46 35 l-30 0
25 11 c48 20 55 26 52 45 -1 11 2 31 7 45 5 14 5 31 1 38 -5 9 -3 24 5 40 20
38 38 104 33 126 -2 14 -13 20 -44 22 -35 3 -47 -3 -92 -39z"/>
<path d="M1231 2236 c-13 -16 1 -56 19 -56 12 0 30 33 30 54 0 20 -34 21 -49
2z"/>
<path d="M1157 2210 c-34 -27 -34 -48 -1 -56 17 -4 23 -11 20 -21 -4 -9 1 -17
14 -20 11 -3 20 -12 20 -20 0 -12 7 -14 31 -9 17 3 38 6 45 6 18 0 18 20 -2
59 -16 31 -34 34 -34 4 0 -12 -5 -11 -23 8 -12 13 -22 33 -22 43 0 28 -18 30
-48 6z"/>
<path d="M602 2148 c4 -33 2 -47 -6 -45 -6 2 -10 11 -10 20 1 9 -11 20 -29 26
-35 13 -33 14 -41 -25 -6 -26 -3 -32 19 -44 34 -18 26 -36 -16 -33 -50 4 -79
-5 -79 -24 0 -13 -3 -14 -12 -5 -17 17 -38 15 -38 -4 0 -9 9 -18 20 -21 11 -3
20 -11 20 -18 0 -7 6 -15 13 -18 9 -3 9 -7 -2 -20 -12 -15 -10 -20 13 -42 23
-21 25 -26 11 -31 -9 -4 -41 -4 -71 -1 -29 3 -56 1 -59 -3 -10 -17 68 -42 112
-37 38 4 41 3 33 -13 -11 -21 -4 -30 25 -30 35 0 61 35 29 42 -13 2 -12 7 6
26 11 12 28 22 37 22 14 0 14 -2 -2 -20 -22 -24 -21 -25 28 -34 26 -5 37 -3
37 5 0 11 76 -68 93 -98 5 -8 13 -47 19 -86 5 -40 15 -78 21 -86 15 -18 37
-81 37 -108 0 -12 -6 -23 -12 -26 -10 -3 -7 -17 11 -51 26 -53 26 -106 -2
-166 -31 -70 -39 -112 -33 -169 9 -77 27 -124 58 -152 20 -18 30 -41 39 -89 7
-36 20 -73 28 -83 13 -16 13 -19 1 -27 -12 -7 -8 -16 19 -44 22 -23 31 -40 27
-51 -4 -11 3 -28 19 -47 14 -16 25 -34 25 -39 0 -15 20 -10 26 6 3 8 -4 26
-15 41 -12 15 -21 36 -21 48 0 12 -7 31 -15 44 -18 25 -45 107 -45 137 0 19 0
19 18 0 10 -11 30 -49 43 -84 13 -35 30 -66 37 -68 6 -3 12 -13 12 -22 0 -9
18 -39 39 -67 40 -52 62 -114 42 -114 -21 0 -11 -21 29 -60 23 -22 48 -40 56
-40 9 0 28 -8 42 -19 15 -10 49 -29 77 -41 42 -19 54 -21 80 -11 42 15 40 15
82 -23 35 -30 84 -47 153 -51 27 -2 91 -67 84 -87 -5 -18 3 -22 38 -19 9 1 23
-7 30 -18 8 -14 23 -21 43 -21 17 0 41 -7 53 -16 18 -13 26 -13 38 -4 8 7 14
18 13 24 -3 26 2 36 20 36 10 0 21 -9 24 -20 3 -13 10 -18 21 -14 24 9 19 41
-8 59 -26 17 -50 12 -82 -17 -20 -18 -24 -18 -57 -5 -50 21 -67 51 -67 119 0
50 -3 60 -24 73 -21 14 -34 15 -82 6 -32 -6 -59 -11 -61 -11 -1 0 2 10 7 22 5
13 14 48 19 78 4 30 10 62 12 70 3 12 -4 14 -35 12 -57 -5 -73 -16 -80 -61 -5
-32 -10 -39 -28 -39 -13 0 -35 -3 -51 -6 -36 -8 -73 16 -98 66 -17 34 -18 45
-9 103 6 37 8 70 5 75 -10 16 13 47 50 68 29 18 46 20 100 16 60 -5 83 4 55
21 -17 11 0 25 30 25 16 0 41 -5 56 -10 19 -7 31 -7 37 -1 14 14 47 -16 47
-43 1 -31 53 -91 74 -83 24 9 20 44 -14 104 -42 75 -40 91 27 158 56 57 56 58
44 92 -9 25 -10 42 -2 61 5 15 11 38 13 52 2 17 14 30 40 43 34 17 36 19 25
47 -11 28 -9 33 26 67 27 28 37 33 37 20 0 -9 6 -17 12 -17 17 0 98 88 98 105
0 27 -23 28 -42 2 -11 -15 -26 -27 -33 -27 -21 0 -45 29 -45 56 0 31 -25 32
-57 2 l-23 -22 15 32 c12 23 28 35 57 44 23 7 57 28 76 46 l34 34 -7 -55 c-4
-30 -3 -57 1 -59 5 -2 37 2 72 10 47 10 62 18 62 31 0 27 -45 65 -70 58 -16
-4 -24 3 -40 38 -21 47 -65 77 -99 68 -14 -4 -35 11 -77 56 -31 34 -63 61 -70
61 -7 0 -14 -14 -16 -32 -2 -25 -8 -34 -25 -36 -17 -2 -23 3 -28 27 -9 40 -54
63 -107 54 -39 -6 -40 -7 -32 -37 4 -17 7 -44 7 -61 0 -19 8 -36 23 -48 29
-23 31 -50 4 -77 -24 -24 -25 -32 -4 -72 11 -22 13 -33 5 -41 -15 -15 -42 13
-57 56 -9 26 -17 33 -46 38 -19 3 -48 15 -64 28 -19 15 -36 20 -51 16 -18 -4
-23 -1 -23 14 0 11 -9 29 -20 39 -19 17 -19 22 -6 65 8 28 29 62 51 84 20 20
34 42 31 49 -3 7 0 16 6 20 8 5 9 -5 4 -34 -5 -37 -4 -42 13 -42 11 0 23 5 26
10 3 6 17 10 30 10 38 0 38 16 -2 46 l-36 27 23 19 c20 16 22 22 12 39 -7 10
-12 27 -12 38 0 10 -8 22 -17 26 -16 6 -15 8 7 20 22 12 27 11 47 -7 18 -17
20 -24 10 -39 -9 -14 -9 -21 0 -30 16 -16 36 -1 30 22 -3 11 -2 19 3 19 32 0
39 -96 7 -106 -30 -9 -16 -39 17 -37 16 1 40 -6 54 -17 16 -13 40 -20 68 -20
48 0 53 5 27 27 -12 8 -13 12 -4 11 30 -6 20 22 -18 53 -49 38 -54 56 -10 34
17 -9 33 -15 35 -12 2 2 5 21 7 43 2 38 2 39 -40 44 -47 7 -58 14 -58 38 0 11
-23 28 -65 48 -36 17 -73 41 -83 52 -15 16 -27 19 -60 15 -53 -7 -67 -25 -67
-85 0 -42 3 -50 25 -60 19 -9 25 -19 25 -45 0 -37 -17 -45 -22 -10 -2 14 -10
22 -23 22 -17 0 -21 10 -29 59 -6 41 -5 65 3 78 28 44 -1 66 -39 28 -14 -14
-19 -28 -15 -48 4 -22 4 -24 -4 -7 -5 11 -10 30 -10 43 -1 29 -25 28 -44 -1
-14 -22 -13 -26 5 -55 11 -18 26 -32 34 -32 8 0 14 -9 14 -20 0 -11 -6 -20
-14 -20 -19 0 -29 -30 -15 -47 18 -20 5 -26 -38 -17 -21 4 -62 8 -92 8 -52 1
-55 2 -62 31 l-8 30 18 -24 c16 -21 24 -23 62 -17 24 3 51 2 59 -4 10 -6 20
-4 32 7 24 21 23 40 -2 53 -16 9 -20 21 -20 65 0 59 -10 74 -34 49 -9 -8 -20
-12 -26 -9 -5 3 -10 1 -10 -4 0 -6 -9 -3 -20 6 -11 10 -20 23 -20 30 0 15 -53
53 -74 53 -9 0 -16 -8 -16 -17 0 -9 -9 -26 -20 -38 -17 -18 -18 -25 -7 -48 14
-32 23 -33 50 -9 11 9 17 12 14 5 -4 -6 -3 -15 3 -18 7 -4 8 -11 2 -18 -5 -7
-8 -24 -6 -39 4 -37 -6 -35 -44 8 -17 19 -36 33 -42 29 -5 -3 -10 1 -10 9 0
13 -13 16 -62 16 -61 0 -64 1 -87 35 -13 19 -28 35 -33 35 -15 0 -64 56 -78
89 -13 32 -40 40 -139 39 l-43 -1 4 -49z m655 -160 c-3 -8 -6 -5 -6 6 -1 11 2
17 5 13 3 -3 4 -12 1 -19z m153 -123 c0 -8 -4 -16 -9 -19 -5 -3 -8 5 -7 18 1
25 16 26 16 1z"/>
<path d="M1304 2159 c-17 -29 37 -79 87 -79 28 0 23 22 -14 58 -34 33 -61 41
-73 21z"/>
<path d="M434 2128 c3 -13 6 -26 6 -30 0 -15 30 -8 30 6 0 26 -12 46 -27 46
-11 0 -14 -6 -9 -22z"/>
<path d="M1567 1693 c-4 -3 -7 -12 -7 -20 0 -17 26 -17 33 1 8 21 -11 35 -26
19z"/>
<path d="M1614 1676 c-4 -10 -2 -22 4 -28 8 -8 13 -7 18 6 4 10 2 22 -4 28 -8
8 -13 7 -18 -6z"/>
<path d="M740 1531 c0 -4 5 -23 12 -42 l12 -34 7 35 c4 19 5 38 3 42 -7 11
-34 10 -34 -1z"/>
<path d="M1866 592 c-3 -6 3 -21 14 -33 l20 -24 -2 29 c-3 30 -21 45 -32 28z"/>
<path d="M1743 510 c-19 -8 -43 -38 -43 -54 0 -13 20 -5 39 15 14 15 25 19 38
14 23 -10 31 -12 69 -13 16 -1 40 -11 52 -22 16 -15 29 -18 54 -13 71 13 89
37 36 46 -18 3 -60 12 -93 21 -66 17 -119 19 -152 6z"/>
<path d="M2247 488 c-21 -11 -23 -38 -3 -38 25 0 46 12 46 25 0 18 -23 25 -43
13z"/>
<path d="M2068 483 c-30 -5 -36 -21 -16 -41 9 -9 7 -12 -10 -12 -13 0 -22 -6
-22 -15 0 -21 89 -17 115 6 11 9 30 20 43 24 22 6 29 20 15 28 -13 8 -97 15
-125 10z"/>
<path d="M1890 391 c0 -15 38 -33 63 -29 41 6 26 33 -20 36 -25 2 -43 -1 -43
-7z"/>
</g>
</svg>
