<?xml version="1.0" standalone="no"?>
<!DOCTYPE svg PUBLIC "-//W3C//DTD SVG 20010904//EN"
 "http://www.w3.org/TR/2001/REC-SVG-20010904/DTD/svg10.dtd">
<svg version="1.0" xmlns="http://www.w3.org/2000/svg"
 width="200.000000pt" height="200.000000pt" viewBox="0 0 200.000000 200.000000"
 preserveAspectRatio="xMidYMid meet">

<g transform="translate(0.000000,200.000000) scale(0.100000,-0.100000)"
fill="#E1E1E6" stroke="none">
<path d="M484 1804 c-14 -33 -14 -38 2 -55 28 -31 49 -20 50 27 1 30 -3 44
-18 53 -17 10 -20 8 -34 -25z"/>
<path d="M588 1778 c-30 -10 -39 -38 -12 -38 8 0 13 -4 10 -8 -5 -9 28 -42 43
-42 8 0 59 -22 91 -39 8 -5 14 -18 12 -30 -3 -17 2 -21 22 -21 14 0 28 -4 31
-10 3 -5 17 -10 30 -10 13 0 27 5 30 10 12 19 44 10 67 -19 15 -19 36 -32 61
-36 45 -9 46 0 7 43 -16 18 -30 37 -30 42 0 26 -78 84 -151 112 l-79 31 -24
-22 -24 -23 -16 30 c-19 36 -32 42 -68 30z"/>
<path d="M426 1585 c-49 -46 -22 -62 39 -22 19 12 35 28 35 35 0 21 -46 13
-74 -13z"/>
<path d="M854 1532 c-13 -9 -37 -100 -29 -112 5 -8 -20 -70 -28 -70 -10 0
-106 51 -111 59 -4 5 3 26 15 45 24 41 27 38 -65 55 -73 13 -79 14 -71 1 3 -6
-5 -14 -19 -20 -14 -5 -26 -13 -26 -17 -1 -5 -10 -19 -21 -32 -18 -23 -20 -23
-38 -7 -16 15 -23 16 -43 6 -30 -16 -114 -111 -110 -125 3 -16 -24 -38 -88
-71 -92 -47 -120 -74 -120 -114 0 -38 19 -100 37 -121 27 -33 62 -131 57 -157
-5 -23 -1 -30 21 -40 39 -18 61 -15 79 13 13 20 25 25 61 25 35 0 45 4 50 20
8 26 27 35 98 50 76 15 117 2 143 -45 19 -36 38 -45 47 -22 4 7 6 6 6 -4 1 -9
10 -19 20 -22 10 -2 27 -21 36 -40 19 -40 68 -63 110 -53 14 4 25 1 28 -7 3
-9 12 -8 35 6 16 9 39 17 50 17 15 0 24 12 37 49 8 26 27 59 42 72 36 34 63
102 63 160 0 51 -15 91 -55 144 -12 17 -25 41 -28 55 -3 14 -20 33 -36 43 -24
14 -32 28 -42 75 -7 34 -20 65 -34 77 -12 11 -27 39 -35 63 -15 47 -21 54 -36
44z"/>
<path d="M1650 776 c0 -8 26 -52 49 -85 30 -42 39 -112 17 -130 -16 -14 -22
-51 -8 -51 5 0 16 -6 26 -13 15 -11 17 -17 7 -36 -10 -17 -9 -24 3 -37 22 -22
52 0 79 58 12 26 26 46 32 44 11 -3 29 27 38 66 8 29 -16 46 -39 27 -19 -16
-51 -2 -58 25 -3 13 -14 26 -24 28 -11 3 -21 18 -25 35 -4 21 -17 37 -42 52
-34 20 -55 26 -55 17z"/>
<path d="M857 677 c-6 -17 22 -79 38 -84 19 -6 45 21 51 55 6 30 5 32 -24 32
-17 0 -37 3 -45 6 -8 3 -17 -1 -20 -9z"/>
<path d="M1620 413 c-16 -27 -30 -53 -30 -60 0 -6 -20 -26 -44 -44 -54 -38
-106 -101 -106 -127 0 -15 11 -22 44 -31 25 -6 52 -11 61 -11 23 0 63 50 71
88 4 22 16 37 35 48 16 8 29 22 29 30 0 9 9 27 20 41 11 14 20 41 20 60 0 30
-3 34 -20 28 -13 -4 -22 -1 -26 9 -10 26 -22 19 -54 -31z"/>
</g>
</svg>
