
<svg version="1.0" xmlns="http://www.w3.org/2000/svg" width="263.000000pt" height="262.000000pt" viewBox="0 0 263.000000 262.000000"  preserveAspectRatio="xMidYMid meet">
 <g transform="translate(0.000000,262.000000) scale(0.100000,-0.100000)"
fill="#E1E1E6" stroke="none">
<path d="M825 2595 c-22 -14 -50 -25 -63 -25 -17 0 -27 -9 -38 -35 -8 -20 -21
-38 -29 -41 -27 -11 -48 -55 -37 -78 16 -31 21 -113 9 -125 -6 -6 -19 -11 -29
-11 -11 0 -18 -7 -18 -20 0 -13 -10 -24 -25 -30 -15 -6 -25 -17 -25 -29 0 -10
-7 -24 -15 -31 -23 -19 -15 -54 13 -58 27 -4 28 -9 1 -31 -14 -11 -21 -30 -23
-56 -1 -33 3 -41 27 -54 18 -10 38 -39 58 -81 17 -36 39 -81 50 -101 10 -20
19 -44 19 -52 0 -20 50 -62 109 -92 25 -12 57 -35 70 -49 29 -31 30 -81 5
-271 -8 -66 -17 -136 -19 -155 -1 -19 -4 -39 -6 -45 -1 -5 1 -27 6 -48 9 -43
-24 -157 -55 -192 -14 -15 -17 -30 -13 -66 3 -30 -1 -65 -11 -97 -18 -53 -18
-118 -1 -115 6 0 14 15 20 32 14 46 26 37 24 -16 -2 -27 0 -58 4 -69 6 -18 0
-27 -35 -53 -23 -17 -48 -31 -55 -31 -7 0 -13 -7 -13 -15 0 -8 4 -15 10 -15
17 0 21 -44 7 -80 -12 -31 -12 -46 5 -130 20 -98 40 -134 82 -146 12 -3 35
-22 53 -42 28 -32 37 -36 90 -40 71 -5 127 8 131 31 3 13 -4 17 -25 17 -37 0
-116 57 -108 78 3 8 0 21 -6 28 -6 8 -13 33 -15 56 -2 33 3 48 22 71 13 16 24
33 24 38 0 5 16 27 36 49 40 44 40 65 -1 80 -19 7 -25 17 -25 41 0 24 6 33 28
41 19 8 35 27 53 64 l25 54 -22 21 c-33 31 -20 53 25 45 48 -7 59 1 63 49 l3
40 55 6 c71 7 88 15 105 50 19 36 19 58 1 65 -8 3 -12 12 -10 19 3 7 -4 18
-15 25 -12 6 -21 15 -21 21 0 6 6 6 19 0 28 -15 98 -29 109 -22 22 14 135 158
147 187 7 18 23 42 35 54 18 18 21 30 16 59 -4 27 0 45 14 69 22 36 55 53 152
78 l67 17 38 76 c32 66 38 87 41 163 l4 88 72 70 71 69 -2 56 c-2 63 -16 88
-45 79 -12 -3 -37 7 -71 29 -29 19 -72 37 -97 41 -25 4 -60 10 -77 13 -18 3
-33 9 -33 13 0 9 -80 50 -97 50 -6 0 -18 -12 -28 -26 -9 -14 -19 -23 -22 -20
-4 3 2 15 12 26 27 29 12 53 -29 48 -32 -4 -33 -3 -21 15 9 13 11 25 5 36 -5
9 -16 33 -24 54 -18 45 -77 76 -143 77 -46 0 -91 21 -133 63 -16 15 -36 27
-44 27 -9 0 -16 8 -16 20 0 13 -9 22 -25 26 -14 3 -25 12 -25 20 0 8 -9 14
-19 14 -11 0 -26 3 -35 6 -11 4 -16 1 -16 -10 0 -14 -8 -16 -52 -10 -29 4 -60
13 -69 20 -8 8 -20 14 -26 14 -6 0 -16 7 -23 15 -7 8 -15 15 -19 15 -10 0 -31
-62 -31 -89 0 -14 -5 -21 -12 -18 -17 5 -11 57 9 79 14 15 11 38 -5 38 -4 0
-25 -12 -47 -25z"/>
<path d="M1255 229 c-16 -5 -36 -16 -42 -25 -20 -27 2 -44 58 -44 45 0 49 2
49 24 0 19 -24 59 -33 55 -1 0 -15 -5 -32 -10z"/>
</g>
</svg>
